<svg width="8" height="16" viewBox="0 0 8 16" fill="none" xmlns="http://www.w3.org/2000/svg">
<path d="M7.71094 3V5.5H0.484375V3H7.71094ZM2.125 0.125H5.45313V11.3125C5.45313 11.6198 5.5 11.8594 5.59375 12.0312C5.6875 12.1979 5.81771 12.3151 5.98438 12.3828C6.15625 12.4505 6.35417 12.4844 6.57813 12.4844C6.73438 12.4844 6.89063 12.4714 7.04688 12.4453C7.20312 12.4141 7.32292 12.3906 7.40625 12.375L7.92969 14.8516C7.76302 14.9036 7.52865 14.9635 7.22656 15.0313C6.92448 15.1042 6.55729 15.1484 6.125 15.1641C5.32292 15.1953 4.61979 15.0885 4.01563 14.8437C3.41667 14.599 2.95052 14.2187 2.61719 13.7031C2.28385 13.1875 2.11979 12.5365 2.125 11.75V0.125Z" fill="#89C5CC"/>
</svg>
